<svg xmlns="http://www.w3.org/2000/svg" width="100" height="100" class="logo"><path class="logo-underlay" d="M66.025 43.749c-1.747-3.1-2.97-4.805-4.018-6.045-2.271-2.944-9.783-10.54-22.361-10.54-3.494 0-11.705.62-18.692 6.511-5.066 4.184-11.704 13.329-11.704 28.364 0 1.396 0 4.03.524 7.44 2.096 15.034 9.433 21.854 16.246 25.265 2.271 1.24 6.988 3.1 13.626 3.1 17.295 0 23.933-11.935 26.729-16.12l-.35-37.975z"/><path class="logo-overlay" d="M0 0v25.828c.556-.746 1.13-1.49 1.74-2.229 4.96-6.2 17.36-18.91 39.68-18.91 14.725 0 28.984 6.045 38.595 17.05 4.03 4.65 6.51 9.455 7.595 11.315l-21.546 10.695c-1.55-3.1-2.635-4.805-3.564-6.045-2.016-2.944-8.68-10.54-19.84-10.54-3.1 0-10.385.62-16.585 6.511-4.495 4.184-10.385 13.329-10.385 28.364 0 1.396 0 4.03.465 7.44 1.86 15.034 8.37 21.854 14.415 25.265 2.015 1.24 6.2 3.1 12.09 3.1 15.345 0 21.234-11.935 23.715-16.12l21.699 11.005c-1.997 3.044-3.642 5.44-4.974 7.271h16.9v-100h-100z"/><filter><feGaussianBlur stdDeviation="15"/></filter></svg>