<svg xmlns="http://www.w3.org/2000/svg" xmlns:xlink="http://www.w3.org/1999/xlink" width="100" height="100"><defs><polyline id="a" points="0,0 101,0 101,100 0,100 0,0"/></defs><clipPath id="b"><use xlink:href="#a" overflow="visible"/></clipPath><path d="M38.291 51.998l-7.474 4.999 16.731 11.153v-9.96l-9.257-6.192m22.786 0l-9.258 6.192v9.96l16.73-11.153-7.472-4.999m-31.969-6.142v7.147l5.342-3.573-5.342-3.574m41.152 0l-5.342 3.574 5.342 3.573v-7.147m-20.575-1.478l-7.553 5.052 7.553 5.051 7.552-5.051-7.552-5.052m-2.137-13.669l-16.731 11.153 7.474 4.999 9.257-6.192v-9.96m4.271 0v9.959l9.258 6.192 7.473-4.999-16.731-11.152m-2.134 43.567c-.413 0-.827-.121-1.185-.359l-22.712-15.141-.035-.026-.096-.074-.121-.102-.085-.084-.106-.114-.074-.093-.089-.13-.062-.098-.072-.143-.048-.102-.055-.156-.034-.104-.037-.179-.017-.091-.02-.281v-15.14l.02-.279.017-.093.037-.179.034-.104.055-.154.047-.104.072-.141.062-.099.089-.13.074-.092.106-.115.085-.083.121-.102.096-.073.035-.026 22.713-15.143c.359-.239.771-.358 1.184-.358.413 0 .826.12 1.184.358l22.712 15.141.035.026.097.073.121.102.084.083.107.115.073.092.09.13.062.099.072.141.048.104.055.156.033.104.037.179.018.093.019.279v15.14l-.019.281-.018.091-.037.179-.033.104-.055.156-.048.104-.072.143-.062.098-.09.13-.073.093-.107.114-.084.084-.121.102-.097.074-.035.026-22.712 15.139c-.358.238-.771.359-1.183.359m0-58.431c-18.519 0-33.585 15.067-33.585 33.585s15.066 33.584 33.584 33.584 33.584-15.066 33.584-33.584c.001-18.518-15.066-33.585-33.583-33.585m0 73.768c-22.195 0-40.185-17.99-40.185-40.183 0-22.194 17.99-40.185 40.185-40.185 22.192 0 40.184 17.991 40.184 40.185-.001 22.193-17.992 40.183-40.184 40.183m51.315-89.613h-101v100h101v-100" clip-path="url(#b)"/></svg>