<svg xmlns="http://www.w3.org/2000/svg" xmlns:xlink="http://www.w3.org/1999/xlink" width="100" height="100"><defs><polyline id="a" points="-0.625,-0.75 100.625,-0.75 100.625,100.75 -0.625,100.75 -0.625,-0.75"/></defs><clipPath id="b"><use xlink:href="#a" overflow="visible"/></clipPath><path d="M10.093 90.035v-53.481h16.629v53.481h-16.629m43.751-46.149h.227c2.22-4.204 7.643-8.638 15.729-8.638 16.82 0 19.927 11.074 19.927 25.479v29.335h-16.603v-26.006c0-6.206-.122-14.184-8.64-14.184-8.65 0-9.97 6.757-9.97 13.733v26.457h-16.617v-53.481h15.947v7.305m-35.435-14.644c-5.329 0-9.635-4.319-9.635-9.641 0-5.316 4.307-9.635 9.635-9.635 5.314 0 9.633 4.319 9.633 9.635 0 5.322-4.319 9.641-9.633 9.641m82.216-29.992h-101.25v101.5h101.25v-101.5" clip-path="url(#b)"/></svg>