<svg xmlns="http://www.w3.org/2000/svg" xmlns:xlink="http://www.w3.org/1999/xlink" width="100" height="100"><defs><polyline id="a" points="-0.625,-0.75 100.625,-0.75 100.625,100.75 -0.625,100.75 -0.625,-0.75"/></defs><clipPath id="b"><use xlink:href="#a" overflow="visible"/></clipPath><path d="M48.552 36.828c-.282-1.208-.427-2.468-.427-3.762 0-9.113 7.388-16.502 16.502-16.502 4.747 0 9.036 2.003 12.046 5.211 3.759-.74 7.291-2.113 10.479-4.004-1.231 3.854-3.85 7.088-7.255 9.13 3.337-.398 6.519-1.285 9.478-2.598-2.212 3.309-5.011 6.216-8.234 8.542.031.708.048 1.42.048 2.136 0 21.808-16.601 46.956-46.956 46.956-9.319 0-17.994-2.732-25.297-7.416 1.292.153 2.605.231 3.937.231 7.732 0 14.848-2.638 20.496-7.064-7.222-.133-13.316-4.904-15.417-11.461 1.008.193 2.042.296 3.105.296 1.505 0 2.963-.201 4.348-.578-7.549-1.518-13.238-8.187-13.238-16.183l.001-.208c2.225 1.236 4.77 1.979 7.475 2.064-4.428-2.959-7.342-8.011-7.342-13.736 0-3.024.814-5.859 2.234-8.296 8.14 9.982 20.3 16.553 34.017 17.242m52.073-37.578h-101.25v101.5h101.25v-101.5" clip-path="url(#b)"/></svg>